<svg id="Layer_1" data-name="Layer 1" xmlns="http://www.w3.org/2000/svg" viewBox="0 0 122.88 122.26"><defs><style>.cls-1{fill:#1a1a1a;}.cls-1,.cls-2{fill-rule:evenodd;}.cls-2{fill:#d8453e;}</style></defs><title>health-care</title><path class="cls-1" d="M26.83,109V70.92H44c7.27,1.3,14.54,5.24,21.8,9.81H79.1c6,.36,9.19,6.48,3.32,10.49-4.66,3.43-10.82,3.23-17.14,2.66-4.36-.21-4.54,5.64,0,5.66,1.58.13,3.29-.25,4.79-.25,7.88,0,14.37-1.51,18.34-7.74l2-4.65,19.82-9.82c9.91-3.26,17,7.1,9.65,14.32a260.22,260.22,0,0,1-44.11,26c-10.94,6.65-21.87,6.42-32.79,0L26.83,109Zm41.1-97.8c5.24-5.45,8.9-10.17,17-11.1C100-1.6,114,13.9,106.33,29.16l-.14.27h-3V23.05a8.08,8.08,0,0,0-2.37-5.69l0,0A8,8,0,0,0,95.1,15H86.38a8.08,8.08,0,0,0-5.71,2.38h0a8.07,8.07,0,0,0-2.37,5.71v6.37H71.92a8.09,8.09,0,0,0-5.71,2.39h0a8.06,8.06,0,0,0-2.37,5.71v8.73a8.09,8.09,0,0,0,8.09,8.09h6.37v5.6L67.94,70.2l-9.4-9.05C47.23,50.26,28.79,36.56,28.18,19.57,27.76,7.68,37.14.06,47.94.19c9.65.13,13.71,4.93,20,11ZM0,67.25H21.67v45.61H0V67.25Z"/><path class="cls-2" d="M86.38,20.09H95.1a3,3,0,0,1,3,3v11.5h11.5a3,3,0,0,1,3,3v8.72a3,3,0,0,1-3,3H98.06V60.45a3,3,0,0,1-3,3H86.38a3,3,0,0,1-3-3V49.2H71.92a3,3,0,0,1-3-3V37.51a3,3,0,0,1,3-3h11.5V23.05a3,3,0,0,1,3-3Z"/></svg>