<svg width="512" height="512" xmlns="http://www.w3.org/2000/svg">
 <!-- Created with UXWing SVG Editor - https://uxwing.com/svg-icon-editor/ -->

 <g>
  <title>background</title>
  <rect fill="none" id="canvas_background" height="514" width="514" y="-1" x="-1"/>
  <g display="none" overflow="visible" y="0" x="0" height="100%" width="100%" id="canvasGrid">
   <rect fill="url(#gridpattern)" stroke-width="0" y="0" x="0" height="100%" width="100%"/>
  </g>
 </g>
 <g>
  <title>Layer 1</title>
  <g id="svg_7">
   <g transform="matrix(3.1796752131653108,0,0,3.1796752131653108,0,0) " id="svg_5">
    <path id="svg_6" d="m95.981367,31.331365c-0.3,0 -0.56,-0.04 -0.82,-0.13c-1.33,0 -2.45,-1.08 -2.45,-2.45l0,-4.81l-23.73,0l0,4.82c0,1.24 -0.99,2.32 -2.2,2.41c-0.26,0.09 -0.56,0.13 -0.86,0.13l-8.94,0l0,9.97l46.82,0l0,-9.98l-7.91,0l0.09,0.04l0,0l0,0zm-46.31,89.23c-0.67,-0.99 -0.4,-2.34 0.6,-3.01c0.99,-0.67 2.34,-0.41 3.01,0.6l1.19,1.75l4.69,-5.71c0.76,-0.93 2.13,-1.06 3.05,-0.3c0.93,0.76 1.06,2.13 0.3,3.05l-6.5,7.9c-0.14,0.18 -0.32,0.35 -0.52,0.49c-0.99,0.67 -2.34,0.4 -3.01,-0.6l-2.81,-4.17l0,0l0,0zm23.28,0.14c-1.33,0 -2.45,-1.08 -2.45,-2.45c0,-1.33 1.08,-2.45 2.45,-2.45l35.81,0c1.33,0 2.45,1.08 2.45,2.45c0,1.33 -1.08,2.45 -2.45,2.45l-35.81,0l0,0l0,0zm-23.28,-22.23c-0.67,-0.99 -0.4,-2.34 0.6,-3.01c0.99,-0.67 2.34,-0.41 3.01,0.6l1.19,1.75l4.69,-5.71c0.76,-0.93 2.13,-1.06 3.05,-0.3c0.93,0.76 1.06,2.13 0.3,3.05l-6.5,7.9c-0.14,0.18 -0.32,0.35 -0.52,0.49c-0.99,0.67 -2.34,0.4 -3.01,-0.6l-2.81,-4.17l0,0l0,0zm23.28,0.14c-1.33,0 -2.45,-1.08 -2.45,-2.45c0,-1.33 1.08,-2.45 2.45,-2.45l35.81,0c1.33,0 2.45,1.08 2.45,2.45c0,1.33 -1.08,2.45 -2.45,2.45l-35.81,0l0,0l0,0zm-22.94,-30.3l13.45,0l4.39,-8.89l8.3,11.97l8.44,-16.46l8.77,17.18l3.39,-3.11l1.76,-0.69l12.49,0l0,5.2l-11.49,0l-7.68,7.05l-7.27,-14.24l-7.75,15.12l-8.21,-11.84l-1.93,3.91l-16.66,0l0,-5.2l0,0zm-12.54,68.82l85.94,0l0,-98.93c0,-0.13 -0.04,-0.3 -0.17,-0.39c-0.09,-0.09 -0.21,-0.17 -0.39,-0.17l-14.1,0l0,4.9c0,0.99 -0.39,1.89 -1.08,2.58c-0.65,0.65 -1.55,1.08 -2.58,1.08l-49.31,0c-0.99,0 -1.94,-0.43 -2.58,-1.08c-0.09,-0.09 -0.13,-0.17 -0.21,-0.26c-0.52,-0.65 -0.86,-1.47 -0.86,-2.32l0,-4.9l-14.1,0c-0.13,0 -0.3,0.04 -0.39,0.17c-0.08,0.09 -0.17,0.26 -0.17,0.39l0,98.93l0,0zm88.49,4.71l0,0.11l-93.31,0l0,-0.11l0,-4.71l0,-98.93c0,-1.5 0.6,-2.83 1.59,-3.83s2.32,-1.59 3.83,-1.59l14.1,0l0,-2.67c0,-0.99 0.39,-1.89 1.08,-2.58c0.65,-0.65 1.55,-1.08 2.58,-1.08l8.35,0l0,-3.34c0,-1.12 0.47,-2.11 1.2,-2.83c0.72,-0.74 1.71,-1.21 2.83,-1.21l25.41,0c1.12,0 2.11,0.47 2.83,1.2c0.73,0.73 1.21,1.72 1.21,2.83l0,3.35l7.53,0c0.99,0 1.89,0.43 2.58,1.08c0.65,0.65 1.08,1.59 1.08,2.58l0,2.67l14.1,0c1.5,0 2.83,0.6 3.83,1.59c0.99,0.99 1.59,2.32 1.59,3.83l0,103.63l-2.41,0l0,0.01z"/>
   </g>
  </g>
  <style transform="matrix(1.9290121985070527,0,0,1.9290121985070527,0,0) " type="text/css">
   <![CDATA[
	.st0{fill:#262626;}
	.st1{fill:#F86464;}
	.st2{fill-rule:evenodd;clip-rule:evenodd;fill:#8BBCDB;}
	.st3{fill:#61C4F2;}
	.st4{fill:#324768;}
	.st5{fill-rule:evenodd;clip-rule:evenodd;fill:#FFFFFF;}
]]>
  </style>
  <g stroke="null" id="svg_44">
   <g stroke="null" transform="matrix(0.9605696987976172,0,0,1.0578490713950666,26.066985538599067,108.37622584999039) " id="svg_12">
    <path stroke="null" id="svg_13" d="m94.210541,268.440267l16.2,0c1.26,0 2.29,1.02 2.29,2.29l0,11.78c0,0.45 -0.01,0.26 -0.02,0.84c-0.01,0.47 -0.01,0.73 0,0.77c0.02,0.06 0.2,0.35 0.61,0.97l16.95,26.07l0.1,0.14c1.26,2.02 1.85,4.06 1.8,5.88c-0.03,1.15 -0.29,2.22 -0.8,3.15c-0.52,0.97 -1.28,1.79 -2.27,2.4c-1.22,0.76 -2.79,1.19 -4.66,1.18l-0.17,0.01l-40.1,0c-0.83,0 -0.97,0 -1.09,0c-2.81,0.05 -5.5,0.1 -8.1,-2.18c-1.47,-1.29 -2.32,-3.02 -2.3,-5.08c0.01,-1.69 0.62,-3.54 2,-5.48c5.56,-8.7 11.65,-17.65 16.91,-26.47c0.27,-0.42 0.36,-0.51 0.38,-0.56c0.01,-0.05 -0.02,-0.11 -0.02,-0.41l0,-0.61l0.01,-12.22c-0.01,-0.07 -0.01,-0.13 -0.01,-0.2c0,-1.25 1.03,-2.27 2.29,-2.27l0,0z" class="st4"/>
    <path stroke="null" id="svg_14" d="m110.410541,270.730267l-16.2,0l-0.01,12.42c0,1.77 0.14,1.48 -0.81,2.97l-16.87,26.4c-2.28,3.2 -1.91,5.87 -0.04,7.51c2.24,1.98 4.92,1.61 7.68,1.61l40.1,0c5.5,0.12 7.12,-4.35 4.15,-9.13l-16.87,-25.93c-1.32,-2.03 -1.13,-1.63 -1.13,-4.06l0,-11.79l0,0z" class="st5"/>
    <path stroke="null" id="svg_15" d="m81.960541,303.960267l-5.47,8.56c-2.28,3.2 -1.91,5.87 -0.04,7.51c2.24,1.98 4.92,1.61 7.68,1.61l40.1,0c5.5,0.12 7.12,-4.35 4.15,-9.13l-5.56,-8.55l-40.86,0l0,0z" class="st2"/>
    <path stroke="null" id="svg_16" d="m89.430541,292.530267c-0.61,0 -1.1,-0.49 -1.1,-1.1s0.49,-1.1 1.1,-1.1l4.33,0c0.61,0 1.1,0.49 1.1,1.1s-0.49,1.1 -1.1,1.1l-4.33,0l0,0z" class="st0"/>
    <path stroke="null" id="svg_17" d="m86.440541,297.320267c-0.61,0 -1.1,-0.49 -1.1,-1.1s0.49,-1.1 1.1,-1.1l5.54,0c0.61,0 1.1,0.49 1.1,1.1s-0.49,1.1 -1.1,1.1l-5.54,0l0,0z" class="st0"/>
    <path stroke="null" id="svg_18" d="m109.680541,310.450267c1.35,0 2.57,0.55 3.46,1.43c0.88,0.89 1.43,2.11 1.43,3.46s-0.55,2.57 -1.43,3.46s-2.11,1.43 -3.46,1.43c-1.34,0 -2.57,-0.55 -3.45,-1.44l0,0c-0.88,-0.88 -1.43,-2.11 -1.43,-3.46s0.55,-2.57 1.43,-3.46c0.88,-0.87 2.1,-1.42 3.45,-1.42l0,0z" class="st4"/>
    <path stroke="null" id="svg_19" d="m109.680541,311.910267c1.89,0 3.42,1.53 3.42,3.42s-1.53,3.42 -3.42,3.42c-1.89,0 -3.42,-1.53 -3.42,-3.42s1.53,-3.42 3.42,-3.42l0,0z" class="st2"/>
    <path stroke="null" id="svg_20" d="m121.310541,310.400267c0.77,0 1.46,0.31 1.96,0.81s0.81,1.2 0.81,1.96s-0.31,1.46 -0.81,1.96c-0.5,0.5 -1.2,0.81 -1.96,0.81s-1.46,-0.31 -1.96,-0.81c-0.5,-0.5 -0.81,-1.2 -0.81,-1.96s0.31,-1.46 0.81,-1.96c0.5,-0.5 1.19,-0.81 1.96,-0.81l0,0z" class="st4"/>
    <path stroke="null" id="svg_21" d="m121.310541,311.860267c0.72,0 1.31,0.59 1.31,1.31s-0.59,1.31 -1.31,1.31c-0.72,0 -1.31,-0.59 -1.31,-1.31s0.59,-1.31 1.31,-1.31l0,0z" class="st2"/>
    <path stroke="null" id="svg_22" d="m111.010541,298.040267c1.06,0 2.02,0.43 2.72,1.13l0.09,0.1c0.64,0.69 1.04,1.61 1.04,2.62c0,1.06 -0.43,2.02 -1.13,2.71l0,0c-0.7,0.7 -1.66,1.13 -2.72,1.13c-1.06,0 -2.02,-0.43 -2.72,-1.13c-0.7,-0.69 -1.13,-1.66 -1.13,-2.72s0.43,-2.02 1.13,-2.72s1.66,-1.12 2.72,-1.12l0,0z" class="st4"/>
    <path stroke="null" id="svg_23" d="m111.010541,299.500267c1.31,0 2.38,1.06 2.38,2.38s-1.06,2.38 -2.38,2.38s-2.38,-1.06 -2.38,-2.38s1.07,-2.38 2.38,-2.38l0,0z" class="st2"/>
    <path stroke="null" id="svg_24" d="m101.360541,289.110267c0.75,0 1.43,0.31 1.92,0.8l0.01,0.01c0.49,0.49 0.8,1.17 0.8,1.92c0,0.75 -0.31,1.43 -0.8,1.92l-0.01,0c-0.49,0.49 -1.17,0.8 -1.92,0.8s-1.43,-0.31 -1.92,-0.8l-0.01,0c-0.49,-0.49 -0.8,-1.18 -0.8,-1.92s0.31,-1.43 0.8,-1.92l0.01,-0.01c0.49,-0.49 1.17,-0.8 1.92,-0.8l0,0z" class="st4"/>
    <path stroke="null" id="svg_25" d="m101.360541,290.580267c0.7,0 1.26,0.57 1.26,1.26s-0.57,1.26 -1.26,1.26s-1.26,-0.57 -1.26,-1.26s0.56,-1.26 1.26,-1.26l0,0z" class="st2"/>
    <path stroke="null" id="svg_26" d="m101.120541,298.180267c0.85,0 1.62,0.34 2.17,0.9l0.1,0.11c0.5,0.55 0.8,1.27 0.8,2.07c0,0.85 -0.34,1.62 -0.9,2.17l-0.11,0.1c-0.55,0.5 -1.27,0.8 -2.06,0.8c-0.84,0 -1.61,-0.35 -2.17,-0.9l0,0c-0.56,-0.56 -0.9,-1.33 -0.9,-2.17c0,-0.84 0.34,-1.61 0.9,-2.17l0,0c0.55,-0.56 1.32,-0.91 2.17,-0.91l0,0z" class="st4"/>
    <path stroke="null" id="svg_27" d="m101.120541,299.650267c0.89,0 1.61,0.72 1.61,1.61s-0.72,1.61 -1.61,1.61s-1.61,-0.72 -1.61,-1.61s0.72,-1.61 1.61,-1.61l0,0z" class="st2"/>
    <path stroke="null" id="svg_28" d="m100.000541,253.650267c1.06,0 2.02,0.43 2.71,1.13l0.01,0c0.7,0.7 1.13,1.66 1.13,2.72s-0.43,2.02 -1.13,2.72c-0.7,0.69 -1.66,1.13 -2.72,1.13c-1.06,0 -2.02,-0.43 -2.72,-1.13c-0.69,-0.7 -1.13,-1.66 -1.13,-2.72s0.43,-2.02 1.13,-2.72l0.1,-0.09c0.69,-0.65 1.61,-1.04 2.62,-1.04l0,0z" class="st4"/>
    <path stroke="null" id="svg_29" d="m100.000541,255.110267c1.31,0 2.38,1.06 2.38,2.38s-1.07,2.38 -2.38,2.38s-2.38,-1.06 -2.38,-2.38s1.07,-2.38 2.38,-2.38l0,0z" class="st2"/>
    <path stroke="null" id="svg_30" d="m105.840541,247.660267c0.85,0 1.62,0.34 2.17,0.9c0.56,0.56 0.9,1.33 0.9,2.17c0,0.85 -0.34,1.62 -0.9,2.18s-1.33,0.9 -2.17,0.9c-0.85,0 -1.62,-0.34 -2.17,-0.9s-0.9,-1.33 -0.9,-2.18c0,-0.85 0.34,-1.62 0.9,-2.17c0.55,-0.55 1.32,-0.9 2.17,-0.9l0,0z" class="st4"/>
    <path stroke="null" id="svg_31" d="m105.840541,249.130267c0.89,0 1.61,0.72 1.61,1.61s-0.72,1.61 -1.61,1.61s-1.61,-0.72 -1.61,-1.61s0.72,-1.61 1.61,-1.61l0,0z" class="st2"/>
    <path stroke="null" id="svg_32" d="m93.660541,262.950267l17.5,0c1.39,0 2.65,0.57 3.56,1.48c0.91,0.91 1.48,2.17 1.48,3.56c0,1.39 -0.57,2.65 -1.48,3.56c-0.06,0.06 -0.11,0.11 -0.17,0.16c-0.9,0.82 -2.09,1.32 -3.38,1.32l-17.5,0c-1.38,0 -2.64,-0.57 -3.55,-1.48l0,0c-0.91,-0.91 -1.48,-2.17 -1.48,-3.56c0,-1.39 0.57,-2.65 1.48,-3.56c0.89,-0.91 2.15,-1.48 3.54,-1.48l0,0z" class="st4"/>
    <path stroke="null" id="svg_33" d="m93.660541,265.250267l17.5,0c1.51,0 2.74,1.23 2.74,2.74l0,0c0,1.51 -1.23,2.74 -2.74,2.74l-17.5,0c-1.51,0 -2.74,-1.23 -2.74,-2.74l0,0c0,-1.51 1.23,-2.74 2.74,-2.74l0,0z" class="st5"/>
    <path stroke="null" id="svg_34" d="m56.500541,256.170267c-3.62,0.33 -6.89,1.36 -9.6,2.97c-2.59,1.54 -4.66,3.62 -6.02,6.11c-1.35,2.5 -2,5.44 -1.75,8.71c0.25,3.15 1.33,6.61 3.41,10.31c0.81,-0.12 1.6,-0.2 2.41,-0.26c3.85,-0.23 7.69,0.36 11.27,1.68c1.39,0.51 2.75,1.13 4.05,1.87l35.36,0c0.7,0 1.25,0.56 1.25,1.25l0,10.42c0,0.7 -0.56,1.25 -1.25,1.25l-23.48,0c1.34,2.94 2.24,6.21 2.59,9.78l24.76,0l0,0c0.31,0 0.62,0.11 0.86,0.35l12.11,11.53c0.28,0.23 0.46,0.58 0.46,0.97c0,0.7 -0.56,1.25 -1.25,1.25l-101.16,0l0,-0.01c-0.28,0 -0.56,-0.09 -0.8,-0.28c-0.53,-0.44 -0.61,-1.23 -0.17,-1.76l9.23,-11.25c0.01,-3.41 0.68,-6.58 1.91,-9.52c1.16,-2.79 2.83,-5.38 4.9,-7.81c-2.48,-4.17 -4.19,-8.28 -5.22,-12.26c-2.2,-8.54 -1.29,-16.49 1.78,-23.3c3.06,-6.8 8.27,-12.45 14.66,-16.4c3.15,-1.95 6.6,-3.48 10.22,-4.54l-0.79,-1.57c-0.02,-0.04 -0.05,-0.07 -0.06,-0.12c-0.3,-0.62 -0.04,-1.37 0.59,-1.68l1.52,-0.72l-3.64,-7.25l-2.18,1.14c-0.04,0.03 -0.08,0.05 -0.12,0.06c-0.62,0.3 -1.37,0.05 -1.67,-0.58l-3.07,-6.3l0,0c-0.29,-0.6 -0.06,-1.34 0.54,-1.66l12.36,-6.5c0.03,-0.02 0.05,-0.03 0.07,-0.05c0.61,-0.31 1.37,-0.06 1.68,0.55l3.2,6.28l0,0c0.31,0.61 0.07,1.35 -0.54,1.67l-1.64,0.88l3.94,7.5l1.76,-0.84l0,0c0.6,-0.29 1.34,-0.05 1.65,0.55l15.42,29.47l1.5,-0.8c0.61,-0.32 1.37,-0.09 1.69,0.52l3.44,6.54l0,0l0.01,0.01c0.32,0.61 0.07,1.37 -0.54,1.68l-18.26,9.45l-0.04,0.02c-0.62,0.3 -1.37,0.04 -1.67,-0.59l-3.11,-6.43c-0.3,-0.6 -0.06,-1.35 0.54,-1.67l1.74,-0.92l-4.85,-9.7l0,0l0,0z" class="st4"/>
    <path stroke="null" id="svg_35" d="m73.800541,312.770267c-0.05,0.01 -0.1,0.02 -0.15,0.02c-0.1,0.01 -0.2,0 -0.29,-0.02l-52.74,0l-7.45,9.09l95.37,0l-9.55,-9.09l-25.19,0l0,0l0,0z" class="st1"/>
    <path stroke="null" id="svg_36" d="m28.180541,294.550267c-0.04,0.06 -0.07,0.11 -0.12,0.16l0,0c-2.17,2.43 -3.9,5.01 -5.06,7.8c-1.01,2.42 -1.6,4.99 -1.7,7.75l50.92,0c-0.72,-6.94 -3.74,-12.62 -8,-16.7c-2.57,-2.45 -5.6,-4.32 -8.86,-5.52c-3.26,-1.2 -6.75,-1.74 -10.25,-1.53c-5.99,0.36 -12,2.91 -16.93,8.04l0,0l0,0z" class="st1"/>
    <path stroke="null" id="svg_37" d="m64.000541,290.060267c0.67,0.53 1.32,1.09 1.94,1.68c1.89,1.79 3.54,3.88 4.91,6.22l23.52,0l0,-7.91l-30.37,0l0,0.01l0,0z" class="st3"/>
    <polygon stroke="null" id="svg_38" points="50.55054759979248,232.07027435302734 50.700541496276855,232.00028228759766 54.93053722381592,229.90027618408203 51.09054088592529,222.60027313232422 48.270548820495605,224.00028228759766 46.87053966522217,224.73026275634766 50.55054759979248,232.07027435302734 50.55054759979248,232.07027435302734 " class="st3"/>
    <rect stroke="null" id="svg_39" height="0" width="0" y="275.450267" x="63.890541"/>
    <path stroke="null" id="svg_40" d="m63.560541,264.690267l0.85,-0.45l9.42,-5.02l-14.86,-28.38l-7.49,3.57l-0.94,0.47l0,0c-0.06,0.03 -0.12,0.06 -0.18,0.07l-1.35,0.65l14.55,29.09l0,0l0,0z" class="st3"/>
    <polygon stroke="null" id="svg_41" points="79.8805341720581,264.3802719116211 77.61054515838623,260.08028411865234 64.33054637908936,267.12027740478516 63.60053539276123,267.5002670288086 63.60053539276123,267.5002670288086 63.570536613464355,267.52027130126953 63.53052806854248,267.54027557373047 61.84054088592529,268.44026947021484 63.87053966522217,272.64026641845703 79.8805341720581,264.3802719116211 79.8805341720581,264.3802719116211 " class="st3"/>
    <path stroke="null" id="svg_42" d="m48.160541,239.500267c-3.56,0.99 -6.95,2.48 -10.04,4.39c-5.98,3.69 -10.84,8.97 -13.69,15.3c-2.85,6.33 -3.69,13.71 -1.64,21.66c0.92,3.55 2.42,7.23 4.58,10.98c3.8,-3.63 8.13,-5.92 12.6,-7.05c-2.01,-3.76 -3.08,-7.34 -3.34,-10.64c-0.29,-3.77 0.46,-7.18 2.04,-10.09c1.57,-2.9 3.97,-5.3 6.95,-7.08c2.77,-1.65 6.07,-2.75 9.68,-3.2l-7.14,-14.27l0,0l0,0z" class="st3"/>
    <path stroke="null" id="svg_43" d="m52.680541,218.890267l-2.07,-4.05l-10.22,5.38l1.98,4.05l1.91,-1c0.1,-0.1 0.21,-0.18 0.34,-0.25l2.69,-1.34l5.37,-2.79l0,0l0,0z" class="st3"/>
   </g>
  </g>
 </g>
</svg>